<?xml version="1.0" standalone="no"?>
<!DOCTYPE svg PUBLIC "-//W3C//DTD SVG 20010904//EN"
 "http://www.w3.org/TR/2001/REC-SVG-20010904/DTD/svg10.dtd">
<svg version="1.0" xmlns="http://www.w3.org/2000/svg"
 width="700.000000pt" height="700.000000pt" viewBox="0 0 700.000000 700.000000"
 preserveAspectRatio="xMidYMid meet">
<metadata>
Created by potrace 1.11, written by Peter Selinger 2001-2013
</metadata>
<g transform="translate(0.000000,700.000000) scale(0.100000,-0.100000)"
fill="#000000" stroke="none">
<path d="M1760 5188 c0 -264 0 -1706 0 -1755 l0 -33 1948 0 1947 0 0 1008 0
1007 -1947 3 -1948 2 0 -232z"/>
<path d="M251 5088 c63 -164 172 -359 285 -509 70 -92 239 -272 324 -344 59
-50 219 -165 230 -165 5 0 10 -4 10 -8 0 -18 310 -167 407 -196 l22 -7 0 641
0 640 -649 0 -650 0 21 -52z"/>
<path d="M5899 4968 c-3 -6 -4 -1208 -1 -1208 1 0 10 4 20 9 9 5 40 20 67 33
83 39 235 127 255 148 3 3 24 17 47 32 43 28 212 163 273 218 74 67 210 202
210 210 0 11 -145 147 -234 219 -94 76 -232 168 -330 220 -89 46 -303 130
-307 119z"/>
<path d="M2914 3162 l-112 -3 -32 -92 c-144 -414 -393 -826 -726 -1202 -30
-33 -52 -64 -51 -69 2 -8 3497 -15 3497 -6 0 3 -22 28 -48 55 -314 334 -542
684 -698 1072 -30 74 -54 143 -54 153 0 10 -4 21 -9 24 -4 3 -11 19 -14 36
l-6 30 -78 0 c-918 4 -1581 4 -1669 2z"/>
<path d="M1394 1233 l1 -298 2305 0 2305 0 2 298 2 297 -2308 0 -2309 0 2
-297z"/>
</g>
</svg>
